<svg viewBox="0.1 0 36.03 39" xmlns="http://www.w3.org/2000/svg">
<path fill-rule="evenodd" clip-rule="evenodd" d="M29.1087 32.7668C29.0464 32.7668 28.9079 33.2268 29.0505 33.5531C29.1263 33.7269 29.3046 33.8002 29.4537 33.7516C29.6008 33.7037 29.6436 33.5671 29.6476 33.4607C29.6614 33.1031 29.3403 32.7668 29.1086 32.7668H29.1087ZM28.0396 27.5493L28.0865 28.0545L27.64 28.0058V28.581L28.0865 28.5326L28.0396 29.0601H28.646L28.5992 28.5326L29.0454 28.581V28.0059L28.5992 28.0545L28.646 27.5493H28.0396ZM28.3436 29.5401C28.2229 29.5401 28.125 29.638 28.125 29.7587C28.125 29.8793 28.2229 29.9771 28.3436 29.9771C28.4643 29.9771 28.5622 29.8793 28.5622 29.7587C28.5622 29.638 28.4643 29.5401 28.3436 29.5401ZM28.3436 30.4248C28.2229 30.4248 28.125 30.5227 28.125 30.6433C28.125 30.764 28.2229 30.8618 28.3436 30.8618C28.4643 30.8618 28.5622 30.764 28.5622 30.6433C28.5622 30.5227 28.4643 30.4248 28.3436 30.4248ZM28.3436 31.3222C28.2229 31.3222 28.125 31.42 28.125 31.5407C28.125 31.6615 28.2229 31.7593 28.3436 31.7593C28.4643 31.7593 28.5622 31.6614 28.5622 31.5407C28.5622 31.42 28.4643 31.3222 28.3436 31.3222V31.3222ZM29.0496 31.5407C29.0496 31.6615 29.1476 31.7593 29.2682 31.7593C29.389 31.7593 29.4868 31.6614 29.4868 31.5407C29.4868 31.42 29.3889 31.3222 29.2682 31.3222C29.1475 31.3222 29.0495 31.42 29.0495 31.5406L29.0496 31.5407ZM29.966 31.5407C29.966 31.6615 30.064 31.7593 30.1846 31.7593C30.3054 31.7593 30.4033 31.6614 30.4033 31.5407C30.4033 31.42 30.3054 31.3222 30.1846 31.3222C30.064 31.3222 29.966 31.42 29.966 31.5406V31.5407ZM28.3436 32.5235C28.1565 32.5235 27.6947 33.4519 28.0389 33.9214C28.1047 34.0112 28.2201 34.0617 28.3436 34.0617C28.467 34.0617 28.5825 34.0112 28.6483 33.9214C28.9925 33.4519 28.5307 32.5235 28.3436 32.5235ZM27.5785 32.7667C27.3468 32.7667 27.0257 33.1031 27.0395 33.4607C27.0435 33.567 27.0864 33.7036 27.2334 33.7515C27.3825 33.8002 27.5609 33.7268 27.6367 33.5531C27.7792 33.2268 27.6408 32.7667 27.5785 32.7667ZM27.2229 31.5406C27.2229 31.6614 27.3206 31.7592 27.4414 31.7592C27.5623 31.7592 27.6601 31.6614 27.6601 31.5406C27.6601 31.42 27.5622 31.3222 27.4414 31.3222C27.3205 31.3222 27.2228 31.4199 27.2228 31.5406H27.2229ZM26.3289 31.5406C26.3289 31.6614 26.4267 31.7592 26.5475 31.7592C26.6682 31.7592 26.7662 31.6614 26.7662 31.5406C26.7662 31.42 26.6683 31.3222 26.5475 31.3222C26.4267 31.3222 26.3289 31.4199 26.3289 31.5406ZM26.1134 31.5406C26.1134 31.3544 26.1463 31.1865 26.1463 31.1865H27.9631V31.0325L27.9632 29.7342L27.9631 29.7341V29.365C27.0862 29.5153 26.3848 30.1772 26.1757 31.0322C26.1248 31.1034 25.96 31.1398 25.8438 31.127C25.1734 31.0466 23.8165 30.8073 23.8165 30.5245C23.8165 30.1273 24.0914 29.9682 24.3555 29.9682C24.7323 29.9682 25.1486 30.1679 25.4953 29.6769C24.2617 29.7322 25.2073 27.9883 24.1955 27.6573C24.2457 28.1026 24.1959 28.8862 24.0363 29.3003C24.0363 29.3003 23.6738 28.9213 23.2667 28.7783C23.2972 29.1016 23.2353 29.7716 23.0875 30.0768C23.0875 30.0768 22.6564 29.6861 22.2093 29.5401C22.6218 30.1252 22.6076 30.9603 22.4966 31.4684C22.4644 31.6153 22.5764 31.7982 22.8909 31.7847C23.383 31.7634 25.0634 31.8359 25.7924 32.1276C26.019 32.2183 26.2131 32.3224 26.308 32.4804C26.3852 32.6933 26.5762 33.0231 26.8113 33.1922C26.9169 32.8242 27.3669 32.4299 27.6601 32.4442C27.7476 32.4484 27.8445 32.5915 27.8645 32.7318C27.8904 32.6014 28.1067 32.241 28.3435 32.241C28.5621 32.241 28.7723 32.5424 28.8452 32.7914C28.8672 32.6315 28.9638 32.4605 29.0514 32.4605C29.3459 32.4605 29.716 32.716 29.8557 33.1382C29.9686 33.0003 30.4874 32.3479 30.546 31.9197H26.1462C26.1462 31.9197 26.1133 31.7346 26.1133 31.5407L26.1134 31.5406ZM28.724 29.3653V31.1865H30.5424C30.3843 30.258 29.6523 29.5251 28.724 29.3653H28.724ZM7.26548 30.8648C7.30372 30.8774 7.34232 30.8685 7.38034 30.8487C7.25779 31.0157 7.26287 31.1256 7.31562 31.177C7.39855 31.2574 7.46001 31.1097 7.66949 30.892C7.87933 30.6746 8.02437 30.6083 7.94173 30.5277C7.88847 30.4759 7.77811 30.4744 7.6134 30.6058C7.63161 30.5674 7.63858 30.5291 7.6253 30.4917C7.55601 30.2954 7.23326 30.0341 7.05535 30.0335C7.02966 30.0338 7.00434 30.039 6.98069 30.0489C7.05898 29.9259 7.03881 29.8331 6.98635 29.7821C6.92873 29.7262 6.89579 29.7654 6.83107 29.8464C6.83985 29.7898 6.82505 29.7235 6.77048 29.6426C6.5034 29.2472 5.09097 27.9453 4.77023 27.8145C4.57881 27.7361 4.51601 27.8445 4.51601 27.8445C4.51601 27.8445 4.41004 27.9113 4.49379 28.1013C4.63393 28.4191 5.99117 29.7785 6.39268 30.0343C6.47505 30.0867 6.54113 30.0995 6.59714 30.089C6.51906 30.1558 6.48166 30.1904 6.53902 30.2461C6.59141 30.2971 6.68472 30.3144 6.80459 30.2316C6.79559 30.2558 6.79138 30.2813 6.79211 30.3071C6.7982 30.4855 7.06812 30.8014 7.26555 30.8648H7.26548ZM3.8705 27.0131C3.82865 27.0131 3.7692 27.0229 3.7255 27.0682C3.68125 27.114 3.66563 27.185 3.68179 27.2673C3.69944 27.3568 3.75162 27.4476 3.82883 27.5229C3.9213 27.613 4.03759 27.6669 4.13954 27.6669C4.18169 27.6669 4.24071 27.6574 4.28449 27.6122C4.3799 27.5131 4.33276 27.3048 4.18134 27.1573C4.08857 27.0673 3.97257 27.0132 3.8705 27.0132V27.0131ZM8.26331 31.846C8.26208 31.7085 7.99615 31.4777 7.68081 31.4777C7.21244 31.4777 7.00964 31.7686 7.00964 31.9169C7.00964 32.1961 7.28493 32.232 7.36924 32.2366C7.69895 32.2566 8.23051 31.9263 8.26331 31.846ZM7.85981 32.543C7.7353 32.6993 7.68872 32.8518 7.72093 32.9965C7.76011 33.1716 7.93679 33.2503 8.09476 33.2503C8.26113 33.2503 8.4101 33.1734 8.49332 33.0442C8.67225 32.7678 8.68016 32.1553 8.61979 32.0882C8.46981 32.0882 8.07088 32.2782 7.85981 32.543ZM3.74916 26.1662C3.61682 26.0373 3.34609 26.2294 3.18428 26.14C3.25603 25.7463 3.54039 26.1595 3.81514 25.8748C3.92471 25.7611 3.86593 25.5836 3.80308 25.53C3.68467 25.6477 3.50142 25.6069 3.48731 25.5416C3.79923 24.8191 3.18987 24.0136 2.6047 24.1146C2.7195 24.2652 2.75385 24.7885 2.70383 24.93C2.92658 25.0869 2.76735 25.4563 2.52148 25.3489C2.35661 25.2831 2.06576 24.879 2.40026 24.5944C2.39059 24.4917 2.20662 24.4668 2.01113 24.714C2.15457 24.2602 1.2764 24.4025 1.09591 24.5114C0.993293 24.6959 0.879579 25.5826 1.32617 25.4241C1.0866 25.6285 1.11722 25.8124 1.21947 25.819C1.49206 25.4742 1.90269 25.7539 1.97348 25.9174C2.08798 26.1613 1.72545 26.3323 1.56261 26.1136C1.42326 26.1684 0.901731 26.1505 0.748269 26.0398C0.666488 26.6306 1.48648 27.2173 2.19533 26.8817C2.26066 26.8938 2.30701 27.076 2.19389 27.1989C2.24925 27.2606 2.4274 27.3139 2.53709 27.2002C2.81154 26.9155 2.39155 26.6427 2.78104 26.5581C2.875 26.7179 2.6926 26.9959 2.82481 27.1249C3.03658 27.331 3.30262 26.931 3.56393 26.915C3.57155 26.6521 3.96092 26.3725 3.74921 26.1662L3.74916 26.1662ZM1.55409 25.2541C1.55409 25.2541 1.41713 25.1587 1.5814 24.984C1.7497 24.8134 1.84919 24.9482 1.84919 24.9482C1.84919 24.9482 2.0035 25.2849 2.04913 25.4398C1.8935 25.3989 1.55414 25.2541 1.55414 25.2541H1.55409ZM2.90971 26.2781C2.82469 26.2886 2.62331 26.4644 2.52232 26.366L2.06012 25.9161L2.29116 25.6758L2.52316 25.436L2.98495 25.8864C3.08593 25.9845 2.91752 26.1925 2.90971 26.278V26.2781ZM10.5679 33.1734C10.5836 33.1059 10.5729 33.0519 10.5368 33.0168C10.5255 33.0058 10.5154 32.9996 10.5092 32.9996C10.4832 32.9996 10.4253 33.0698 10.3695 33.1377C10.323 33.194 10.265 33.2642 10.1911 33.3406C10.1175 33.4174 10.0493 33.4776 9.99463 33.5263C9.92977 33.5838 9.86243 33.6434 9.86171 33.6703C9.86171 33.6767 9.86831 33.6868 9.88014 33.6982C9.90401 33.7216 9.93601 33.7333 9.97497 33.7333C10.0343 33.7333 10.163 33.7035 10.3568 33.5023C10.5039 33.3499 10.553 33.2393 10.568 33.1734H10.5679ZM10.5708 33.7103C10.47 33.815 10.3677 33.8893 10.311 33.9274C10.3512 33.9673 10.4654 34.038 10.6082 34.038C10.6897 34.038 10.7658 34.0145 10.8353 33.9681C10.9777 33.7379 10.8402 33.5025 10.7784 33.4426C10.7423 33.5008 10.6713 33.606 10.5707 33.7103H10.5708ZM9.01095 32.4301C8.9376 32.4974 8.76795 32.9646 8.84197 33.2492C8.87382 33.3712 8.94253 33.4232 9.05877 33.4171C9.179 33.4097 9.24459 33.3483 9.26491 33.2234C9.31099 32.9392 9.09099 32.4874 9.01088 32.43L9.01095 32.4301ZM8.91808 31.1315C8.92229 31.1395 9.78828 31.8853 10.0788 32.1552C10.1473 32.2189 10.2417 32.2336 10.3376 32.1859C10.3923 32.1585 10.4604 32.127 10.5308 32.0953C11.3968 31.7958 12.8213 31.762 13.3438 31.7846C13.6583 31.7981 13.7694 31.6154 13.7381 31.4682C13.6358 30.9875 13.6129 30.1252 14.0254 29.5401C13.5783 29.6861 13.1472 30.0767 13.1472 30.0767C12.9994 29.7716 12.9375 29.1016 12.968 28.7783C12.561 28.9212 12.1983 29.3003 12.1983 29.3003C12.0388 28.8862 11.989 28.1027 12.0393 27.6574C11.0273 27.9883 11.9731 29.7322 10.7394 29.6769C11.086 30.168 11.5023 29.9684 11.8791 29.9684C12.1432 29.9684 12.4714 30.1377 12.4182 30.5245C12.3796 30.8047 10.7244 31.1536 10.0586 31.1536C9.59338 31.1536 9.28174 31.0129 9.04825 30.6968C8.93593 30.5447 8.82136 30.476 8.69308 30.4952C8.53381 30.5193 8.34755 30.6787 8.34755 31.0478C8.34755 31.3092 8.45552 31.8824 8.77615 31.8824C9.00145 31.8824 9.01139 31.4294 8.91808 31.1315V31.1315ZM9.98839 33.1433C10.1395 32.9863 10.1924 32.8718 10.1551 32.7827C10.101 32.6538 9.75729 32.2792 9.30729 31.8565C9.29386 31.9439 9.27376 32.03 9.24721 32.1144C9.5505 32.5067 9.66384 32.9279 9.5616 33.2817C9.59861 33.3058 9.62154 33.3167 9.63496 33.3219C9.75134 33.3672 9.89668 33.2385 9.98832 33.1433H9.98839ZM7.79864 31.01C7.79639 31.0122 7.74038 31.0663 7.70417 31.1391C7.79828 31.1397 7.90792 31.1554 8.0066 31.1815C8.00007 31.096 7.99354 30.9803 8.00217 30.8804C7.91887 30.8987 7.82948 30.9772 7.79864 31.01ZM22.9248 33.7045C23.2098 33.5775 23.4154 33.2329 23.4695 32.896C23.2889 32.9825 23.0852 33.0246 22.8504 33.0246C22.2044 33.0246 21.3928 32.674 20.6573 32.3562C20.6573 32.3562 20.4987 32.4864 20.2359 32.5136C20.978 32.7363 22.4365 33.5264 22.5437 34.0334C22.6153 34.3723 22.3889 34.5017 22.3889 34.5017C22.0645 33.9848 21.2282 33.1823 20.1119 32.7808C20.1143 32.9697 20.0771 33.1023 20.0771 33.1023C20.0771 33.1023 19.8506 33.1567 19.3695 33.0752C19.7901 33.4178 20.8952 34.628 21.0152 35.5463C21.0952 36.1593 20.6564 36.1876 20.6564 36.1876C20.5937 35.2655 20.0983 34.3115 19.2042 33.3534C19.2042 33.3534 19.0576 33.5778 18.8628 33.691C18.8628 33.691 18.5326 33.6339 18.2585 33.4569C18.3641 34.6735 18.4263 36.2538 18.3609 36.7321C18.3152 37.0652 18.1174 37.2048 18.1174 37.2048C18.1174 37.2048 17.9191 37.0652 17.8733 36.7321C17.8079 36.2538 17.8702 34.6735 17.9757 33.4569C17.7018 33.6339 17.3714 33.691 17.3714 33.691C17.1766 33.5779 17.0302 33.3535 17.0302 33.3535C16.1359 34.3115 15.6405 35.2655 15.5779 36.1876C15.5779 36.1876 15.1391 36.1593 15.2191 35.5463C15.3391 34.628 16.4442 33.4178 16.8647 33.0752C16.3837 33.1567 16.1571 33.1024 16.1571 33.1024C16.1571 33.1024 16.1201 32.9698 16.1223 32.7809C15.0062 33.1823 14.17 33.9848 13.8453 34.5017C13.8453 34.5017 13.619 34.3723 13.6908 34.0334C13.7979 33.5265 15.2563 32.7364 15.9986 32.5136C15.7357 32.4865 15.577 32.3562 15.577 32.3562C14.8416 32.6741 14.0299 33.0246 13.3839 33.0246C13.1492 33.0246 12.9455 32.9825 12.7649 32.896C12.8189 33.233 13.0246 33.5775 13.3096 33.7046C12.3117 34.39 12.9279 35.9963 11.5896 35.6943C12.3358 37.0469 13.8453 37.1828 13.8453 37.1828C13.5109 36.4672 13.9278 34.2844 15.9313 33.2925C14.698 34.4927 14.1362 35.9479 14.4635 36.9744C14.7636 37.9167 15.7396 38.2986 16.4744 38.3149C15.9548 36.757 16.275 34.9728 17.3533 33.8496C16.8913 35.0814 16.2415 38.3693 18.1177 39C19.9935 38.3693 19.3433 35.0814 18.881 33.8496C19.9596 34.9728 20.2797 36.757 19.7601 38.3149C20.4948 38.2986 21.4708 37.9167 21.7711 36.9744C22.0983 35.9479 21.5363 34.4927 20.3032 33.2925C22.3068 34.2844 22.7235 36.4672 22.3891 37.1828C22.3891 37.1828 23.8987 37.0469 24.645 35.6943C23.3066 35.9963 23.9228 34.39 22.9248 33.7046L22.9248 33.7045ZM18.2767 6.60606C18.2767 6.5095 18.1986 6.43085 18.1029 6.43085C18.0069 6.43085 17.929 6.5095 17.929 6.60606C17.929 6.70285 18.0069 6.78156 18.1029 6.78156C18.1986 6.78156 18.2767 6.70285 18.2767 6.60606ZM19.1538 6.60606C19.1538 6.5095 19.076 6.43085 18.98 6.43085C18.8842 6.43085 18.8062 6.5095 18.8062 6.60606C18.8062 6.70285 18.8842 6.78156 18.98 6.78156C19.076 6.78156 19.1538 6.70285 19.1538 6.60606ZM17.7912 2.05825C17.7912 2.23901 17.9371 2.38662 18.1164 2.38662C18.2961 2.38662 18.442 2.23901 18.442 2.05825C18.442 1.8772 18.2961 1.72977 18.1164 1.72977C17.9371 1.72977 17.7912 1.8772 17.7912 2.05819V2.05825ZM17.8959 1.36051H18.3388L18.2909 0.837082L18.7721 0.887191V0.473199L18.2909 0.523131L18.3388 0H17.8958L17.9435 0.523131L17.4624 0.473199V0.887191L17.9435 0.837082L17.8958 1.36051H17.8959ZM17.3996 6.606C17.3996 6.50944 17.3216 6.43085 17.2257 6.43085C17.1299 6.43085 17.0519 6.50944 17.0519 6.606C17.0519 6.70279 17.1299 6.7815 17.2257 6.7815C17.3216 6.7815 17.3996 6.70279 17.3996 6.606ZM16.3556 7.2556C16.4027 7.27213 16.457 7.28114 16.5213 7.28114H19.7135C19.7778 7.28114 19.8322 7.27213 19.879 7.2556C19.9821 7.21948 20.0448 7.14379 20.0691 7.02282H16.1655C16.1898 7.14379 16.2525 7.21941 16.3556 7.25567V7.2556ZM16.5312 6.606C16.5312 6.50944 16.4532 6.43085 16.3572 6.43085C16.2614 6.43085 16.1833 6.50944 16.1833 6.606C16.1833 6.70279 16.2614 6.7815 16.3572 6.7815C16.4531 6.7815 16.5311 6.70279 16.5311 6.606H16.5312ZM20.0225 6.606C20.0225 6.50944 19.9443 6.43085 19.8488 6.43085C19.7528 6.43085 19.6748 6.50944 19.6748 6.606C19.6748 6.70279 19.7528 6.7815 19.8488 6.7815C19.9444 6.7815 20.0225 6.70279 20.0225 6.606ZM20.231 6.19041C20.3211 6.08116 20.7685 5.23486 20.7685 4.38052C20.7685 3.61157 19.7806 3.1883 19.1929 3.16898C19.1249 4.26736 18.6875 5.99151 18.1175 5.99151C17.578 5.99151 17.1092 4.27729 17.042 3.16893C16.4543 3.18837 15.4665 3.61163 15.4665 4.38058C15.4665 5.23491 15.9138 6.08121 16.0038 6.19041H20.2312H20.231ZM18.1175 5.44605C18.386 5.44605 18.7329 4.35216 18.8215 3.31683C18.8215 3.10723 18.5529 2.78661 18.1176 2.77827C17.682 2.78661 17.4134 3.10723 17.4134 3.31683C17.4912 4.28231 17.8532 5.44605 18.1176 5.44605H18.1175ZM9.58359 11.0297C9.06269 11.7304 9.78305 12.4974 9.82746 12.5503C9.8588 12.5877 9.88565 12.5708 9.88086 12.5289C9.87709 12.4929 10.2558 11.4124 12.4357 11.9814C12.4823 11.9936 12.5109 11.9945 12.4672 11.9503C12.0645 11.6381 11.5867 10.9382 11.4323 10.3753C11.4323 10.3753 10.1046 10.329 9.58359 11.0297ZM10.7522 10.8832C10.7522 10.6874 11.0434 10.6335 11.2107 10.6335C11.2107 10.6335 11.2841 10.8224 11.3579 10.927C11.188 10.8528 10.9521 10.8452 10.7522 10.8832ZM11.9094 9.96878C11.7643 9.96878 11.7102 10.0591 11.7575 10.2154C12.2585 11.8667 13.624 12.2584 14.1631 12.9736C14.1631 12.9736 14.1592 12.7508 14.4093 12.2192C14.5795 12.4925 15.0405 13.0046 15.3402 13.0698C15.2686 12.9225 15.1834 12.3411 15.2498 11.9504C15.9574 12.5558 16.8297 12.6749 17.2979 12.3255C16.8993 12.3404 16.3802 11.9065 16.119 11.5216C16.4838 11.6041 16.9859 11.519 17.0894 11.4166C16.8591 11.3616 16.5796 11.1617 16.4113 10.9717C16.6701 10.9541 17.2317 10.7466 17.3923 10.4541C17.1671 10.5041 16.8332 10.4142 16.6158 10.3017C16.7814 10.2141 17.1946 9.78092 17.2938 9.40065C16.707 9.68209 15.7811 9.96211 14.4095 9.96211C14.4095 9.96211 11.9858 9.96871 11.9093 9.96871L11.9094 9.96878ZM13.4235 10.7216C13.0357 10.8719 12.8414 11.0748 12.8414 11.0748C12.8414 11.0748 12.6554 10.776 12.5959 10.6799C12.5365 10.584 12.5179 10.4663 12.7183 10.4663H13.9204C13.9204 10.5465 13.8112 10.5713 13.4235 10.7216ZM9.31984 13.4087C9.44529 13.5714 9.80025 14.0686 10.5791 13.6241C11.3577 13.1796 11.7593 12.9376 11.7593 12.9376C11.7593 12.9376 11.6377 13.167 11.73 13.442C11.7354 13.4578 11.7536 13.4571 11.7607 13.4407C11.8382 13.2627 12.5145 12.7477 13.3769 12.6764C13.0608 12.4061 12.7139 12.1652 12.7139 12.1652C12.3455 12.2234 11.6313 12.4698 10.7074 13.0566C9.78349 13.6434 9.35786 13.3983 9.34015 13.3873C9.32252 13.3762 9.29756 13.3797 9.31977 13.4087H9.31984ZM20.3551 32.1433C20.4881 32.1018 20.5995 32.0354 20.6566 31.961C20.06 31.9357 19.5674 31.4319 19.387 31.121C19.1889 31.4418 18.835 31.6923 18.835 31.6923C18.583 31.6273 18.2387 31.3589 18.1174 31.1536C17.9962 31.3589 17.6519 31.6274 17.3998 31.6924C17.3998 31.6924 17.046 31.4418 16.8477 31.121C16.6674 31.4319 16.1748 31.9357 15.5781 31.961C15.6354 32.0354 15.7467 32.1018 15.8798 32.1433C15.9688 32.1712 16.0674 32.1884 16.1667 32.1884C16.2718 32.1884 16.3774 32.1698 16.472 32.1264C16.4124 32.3382 16.3926 32.5996 16.4362 32.7789C16.4362 32.7789 16.7536 32.8034 17.0812 32.6824C17.1047 32.876 17.1952 33.1104 17.3435 33.269C17.3726 33.3 17.403 33.3291 17.4366 33.3534C17.6126 33.3534 18.0373 33.153 18.1174 33.0294C18.1974 33.1529 18.6223 33.3534 18.7983 33.3534C18.8317 33.3291 18.8623 33.2999 18.8914 33.2689C19.0396 33.1104 19.1301 32.8759 19.1536 32.6823C19.301 32.7547 19.4722 32.7836 19.6616 32.7836C19.7073 32.7835 19.7529 32.7819 19.7985 32.7789C19.8422 32.5996 19.8224 32.3382 19.7627 32.1264C19.8575 32.1698 19.963 32.1884 20.068 32.1884C20.1675 32.1884 20.2659 32.1712 20.355 32.1433H20.3551ZM14.3995 19.702C14.2825 19.702 14.2102 19.775 14.2102 19.8924V27.0255C14.2102 27.7056 14.4843 28.0507 15.0248 28.0507L16.3775 28.0558C17.3043 28.0558 17.8511 28.3678 18.1174 28.7543C18.3439 28.3938 18.9803 28.0558 19.8573 28.0558L21.2096 28.0507C21.7503 28.0507 22.0245 27.7056 22.0245 27.0255V19.8924C22.0245 19.775 21.9519 19.702 21.8353 19.702H14.3994H14.3995ZM15.7206 26.3756C15.7076 26.5334 15.8953 26.8206 16.205 26.7308C16.1957 26.789 16.2131 26.9483 16.2823 27.0678C15.7335 27.1893 15.4969 26.7481 15.7206 26.3756ZM20.6952 24.0143C20.6196 23.9359 20.5452 23.8566 20.4717 23.7764C20.3935 23.6914 20.3376 23.6584 20.2578 23.6584C20.0782 23.6584 19.8861 23.7545 19.7833 23.821C19.7765 23.8237 19.7713 23.8303 19.7688 23.8476C19.8779 23.8381 19.9874 23.8303 20.0963 23.8182C20.1919 23.8074 20.2812 23.8112 20.3635 23.8711C20.4284 23.9181 20.4649 23.9763 20.4684 24.0523C20.4788 24.2951 20.677 24.8061 20.6894 24.9594C20.7048 25.0197 20.6306 25.0373 20.5279 25.3194C20.452 25.4023 20.2468 25.1392 20.2766 25.0775C20.396 24.9251 20.429 24.8302 20.3987 24.7167C20.3744 24.6254 20.3289 24.4624 20.2952 24.374C20.2502 24.2562 20.1487 24.212 20.0226 24.2542C19.528 24.4146 19.4517 24.2008 18.9616 24.402L19.5262 25.2561C19.5241 25.1943 19.4937 25.0825 19.4024 25.0022C19.4189 24.916 19.5969 24.8803 19.6635 24.961C19.7452 25.0634 19.9045 25.2094 20.0356 25.2328C20.2875 25.2783 20.2685 25.6523 20.9417 25.7775C20.8579 25.8622 20.6712 25.8334 20.5898 25.7951C20.639 25.8693 20.6955 25.9393 20.7969 25.9645C20.6926 26.067 20.3932 25.827 20.4238 26.0685C20.4756 26.0392 20.5473 26.0344 20.608 26.0494C20.7423 26.0822 20.9626 26.8287 20.4985 27.155C20.5973 27.184 20.7036 27.1329 20.8038 27.1329C20.8626 27.1329 20.9174 27.1886 20.9233 27.2508C20.9665 27.2833 20.995 27.3231 21.0202 27.3743C20.9853 27.3856 20.9178 27.3752 20.8804 27.3507C20.8954 27.3922 20.8919 27.4918 20.8761 27.4936C20.8341 27.4992 20.8018 27.4756 20.7589 27.4506C20.6992 27.4805 20.5028 27.4683 20.4472 27.4197C20.2989 27.455 20.1527 27.5023 19.9982 27.5023C19.9147 27.5023 19.805 27.4971 19.8088 27.3974C19.8108 27.3489 19.8354 27.3239 19.8547 27.2707C19.7836 27.1993 19.6652 27.2685 19.5239 27.2818C19.3324 27.2998 19.2535 27.2707 19.212 27.2326C19.3928 27.0689 19.2836 26.67 19.0045 26.6348C19.2341 26.85 19.2042 27.1984 18.947 27.2765C19.0213 27.3001 19.0581 27.3328 19.0865 27.3845C19.177 27.4213 19.1783 27.4853 19.1715 27.514C19.122 27.4797 19.033 27.4458 18.9619 27.455C18.9568 27.4854 18.9438 27.5422 18.917 27.5642C18.8864 27.5576 18.8462 27.53 18.8307 27.5082C18.7486 27.4466 18.237 27.5642 18.206 27.4819C18.1864 27.4055 18.3229 27.3412 18.4489 27.3141C18.1249 27.1976 17.8438 26.6008 17.345 26.4997C17.1137 26.453 16.8003 26.5547 16.8003 26.8492C16.8003 26.9939 16.9191 27.1053 17.0477 27.1053C17.166 27.1053 17.2252 27.0252 17.2252 26.9441C17.2061 26.9582 17.1943 26.967 17.1827 26.9762C17.1103 27.0344 17.0181 27.0307 16.9514 26.9671C16.8926 26.911 16.8926 26.8136 16.9496 26.7477C16.9966 26.6929 17.0529 26.6621 17.1281 26.6512C17.3234 26.6233 17.4831 26.6843 17.5907 26.8377C17.642 26.9109 17.6703 26.9891 17.6703 27.065C17.6703 27.4042 17.3231 27.4813 17.1309 27.4813C16.6471 27.4813 16.362 27.1423 16.362 26.7502C16.362 26.7044 16.3643 26.6581 16.3723 26.6114C16.448 26.17 16.8507 25.9855 17.1992 25.9303C17.1548 25.7767 17.069 25.6525 16.9458 25.5511C16.8845 25.5008 16.8782 25.4595 16.9169 25.3953C16.9694 25.3074 17.0248 25.2209 17.048 25.1218C17.0533 25.0996 17.0558 25.0761 17.0574 25.052C16.8839 25.2041 16.6413 25.3435 16.3057 25.4432C16.1999 25.491 16.1439 25.5855 16.1304 25.6939C16.1151 25.8199 16.1115 25.9476 16.1092 26.0748C16.1087 26.1041 16.1303 26.136 16.1468 26.164C16.2092 26.269 16.2782 26.371 16.2936 26.5018C16.2936 26.5652 15.9677 26.5717 15.9677 26.521C15.9647 26.2909 15.8078 26.2015 15.8247 26.0497C15.868 25.8134 15.8776 25.5771 15.8382 25.3396C15.8281 25.2799 15.8607 25.2406 15.9042 25.2087C15.9734 25.1571 16.047 25.1109 16.1161 25.0597C16.2792 24.9377 16.3467 24.7788 16.3083 24.5818C16.3034 24.5561 16.2918 24.5314 16.2805 24.5073C16.1993 24.332 16.14 24.1544 16.14 23.9568C16.14 23.74 15.8654 23.7523 15.8834 23.9654C15.889 24.032 15.9397 24.125 15.9683 24.189C16.2498 24.8228 15.7436 25.2792 15.22 25.2788C15.7704 25.0925 15.0913 24.403 15.0913 23.8887C15.0913 23.5733 15.3405 23.3401 15.6378 23.3401C15.9806 23.3401 16.1979 23.5563 16.2602 23.5934C16.426 23.3361 16.9339 23.2897 17.1245 23.26C17.11 23.1214 17.1299 22.9983 17.2167 22.8919C17.2224 22.8848 17.2259 22.8714 17.2229 22.8638C17.1958 22.7982 17.1669 22.7335 17.1295 22.6702C16.9732 22.8428 16.9357 23.0717 16.9357 23.1901C16.3567 23.1818 16.1014 22.9337 15.9302 22.836C15.9309 22.7929 16.0849 22.5217 16.2215 22.3427C16.0718 22.4682 15.9487 22.6096 15.8583 22.7791C15.7756 22.7206 15.6885 22.6677 15.6034 22.6331C15.7339 22.3597 15.9068 22.1468 16.1272 21.9244C15.8169 22.0365 15.5469 22.3796 15.4445 22.5952C15.356 22.5854 15.2253 22.582 15.1522 22.5959C15.4903 22.1913 15.6449 21.3943 16.3884 21.2156C16.2021 21.9547 16.6653 22.2551 16.984 22.0622C16.9426 22.0622 16.9141 22.0687 16.8874 22.0622C16.2657 21.9079 16.6341 21.0656 16.4836 20.8903C16.4264 20.8238 16.3969 20.7628 16.4062 20.6786C16.4095 20.6491 16.4006 20.6147 16.3867 20.5875L16.0561 20.0474C16.0144 19.9795 16.1431 19.9311 16.1709 19.9624L16.5081 20.5024C16.5168 20.5159 16.5275 20.5357 16.5401 20.538C16.6634 20.5592 16.7015 20.6591 16.7514 20.7475C16.7672 20.7761 16.7797 20.8089 16.7825 20.8411C16.7849 20.8657 16.778 20.9001 16.7613 20.9169C16.7076 20.9699 16.718 21.0221 16.7595 21.091C16.826 21.2014 18.8235 24.4527 18.8235 24.4527C18.3897 24.6264 17.6049 24.6405 17.3775 24.6189C17.3303 24.7318 17.2566 24.8508 17.1476 24.9655C17.2565 24.8962 17.3406 24.8084 17.4184 24.7129C17.5061 24.7228 17.6378 24.7572 17.7723 24.7668C17.6927 24.9331 17.5732 25.0986 17.4197 25.2371C17.3475 25.3067 17.2581 25.3682 17.291 25.4796C17.3281 25.6049 17.5666 25.8436 17.6536 25.9986C17.7399 26.0165 17.8856 26.0465 17.9925 26.0883C18.0535 26.2163 18.2597 26.3772 18.5083 26.2939C18.0085 26.2878 18.0454 25.7873 18.2007 25.5226C18.1839 25.7684 18.3054 25.9725 18.4592 25.9958C18.2286 25.7901 18.2516 25.3228 18.4763 25.0664C18.5083 25.4826 18.6375 25.7014 18.8222 25.7508C18.5781 25.5312 18.4314 25.0232 18.8002 24.653C18.8287 25.603 19.7189 25.4316 19.7998 26.5314C20.1294 26.5314 20.1482 26.0975 19.9644 26.0178C19.8572 25.9785 19.7603 25.9095 19.7054 25.8155C19.6825 25.776 19.6588 25.7054 19.6401 25.6639C19.5421 25.3814 19.2655 25.3993 19.2722 25.3316C19.2788 25.3086 19.3223 25.2981 19.3834 25.2981L18.862 24.5109L18.8348 24.4698C18.8977 24.4574 18.9117 24.4216 18.8471 24.3221C18.8471 24.3221 16.8906 21.1426 16.8813 21.1244C17.0632 21.0935 17.2379 21.1418 17.408 21.2061C17.3627 21.1649 17.3256 21.1074 17.3177 21.0481C17.3112 21.0004 17.3129 20.9725 17.3523 20.9423C17.3939 20.9091 17.4338 20.8708 17.463 20.8275C17.5601 20.6832 17.7386 20.6126 17.9008 20.6577C18.1455 20.7257 18.2321 20.9961 18.0522 21.1383C17.9564 21.3446 17.8377 21.3186 17.8133 21.4111C17.8613 21.4328 18.196 21.6854 18.2183 21.7918C18.1186 21.9947 18.069 22.312 18.1555 22.4889C18.2203 21.6455 18.7399 21.2329 19.2461 21.2329C19.3663 21.2329 19.4858 21.2534 19.6056 21.2932C19.6712 21.3149 19.7367 21.3461 19.7914 21.3866C19.8705 21.4458 19.944 21.5117 20.0111 21.5837C20.1099 21.6897 20.2004 21.803 20.3684 21.8103C20.3192 21.8788 20.2634 21.9288 20.2061 21.9779C20.1648 22.0141 20.1441 22.0575 20.139 22.1119C20.1273 22.2291 20.0879 22.3364 19.9998 22.4226C19.9879 22.4343 19.9787 22.4484 19.9729 22.4638C19.9167 22.6231 19.8598 22.7818 19.807 22.942C19.7938 22.981 19.7968 23.0347 19.7429 23.0341C19.696 23.0335 19.6395 23.0202 19.6047 22.9923C19.5305 22.9337 19.5039 22.8482 19.5305 22.7579C19.5569 22.6682 19.5305 22.5912 19.5014 22.5077C19.4715 22.4242 19.4612 22.3339 19.4412 22.2387C19.303 22.1913 19.0435 22.4814 19.2416 22.7246C19.3703 22.9039 19.4858 23.2339 19.5058 23.369C19.51 23.3823 19.3888 23.4569 19.2219 23.4361C18.6576 23.3656 18.3007 22.9828 18.1923 22.6599C18.1834 23.2069 18.6481 23.6125 19.3369 23.5732C19.365 23.7007 19.4715 23.7872 19.5956 23.7912C19.6214 23.709 19.6209 23.5363 19.5998 23.4266C19.5904 23.3783 19.6164 23.3536 19.6621 23.3421C19.8126 23.3047 20.0087 23.3192 20.1764 23.2607C20.3251 23.2086 20.3954 23.2391 20.4879 23.4149C20.5579 23.5475 20.6777 23.6901 20.7907 23.7885C20.8383 23.8296 20.8857 23.8713 20.9306 23.9153C20.9878 23.9712 21.0176 24.037 21.022 24.1184C21.0072 24.2459 21.0246 24.5025 21.0246 24.5065C20.9919 24.5907 20.7539 24.5016 20.7155 24.4112C20.7009 24.3775 20.8173 24.1409 20.6952 24.0142V24.0143ZM24.8026 10.3753C24.6482 10.9382 24.1704 11.6381 23.7677 11.9503C23.724 11.9944 23.7526 11.9936 23.7992 11.9814C25.9791 11.4124 26.3578 12.4929 26.3539 12.5289C26.3493 12.5709 26.3761 12.5878 26.4073 12.5504C26.4518 12.4974 27.1722 11.7304 26.6513 11.0298C26.1303 10.329 24.8026 10.3753 24.8026 10.3753ZM24.877 10.927C24.9506 10.8224 25.0243 10.6335 25.0243 10.6335C25.1915 10.6335 25.4826 10.6875 25.4826 10.8832C25.2826 10.8452 25.0468 10.8528 24.877 10.927ZM26.9151 13.4087C26.9373 13.3797 26.9122 13.3762 26.8946 13.3873C26.877 13.3983 26.4513 13.6434 25.5274 13.0566C24.6036 12.4698 23.8894 12.2234 23.521 12.1652C23.521 12.1652 23.1741 12.4061 22.8578 12.6764C23.7202 12.7477 24.3966 13.2627 24.4741 13.4407C24.4813 13.4571 24.4994 13.4578 24.5048 13.442C24.5972 13.167 24.4755 12.9376 24.4755 12.9376C24.4755 12.9376 24.8771 13.1796 25.6557 13.6241C26.4345 14.0685 26.7895 13.5714 26.915 13.4086L26.9151 13.4087ZM19.619 10.3017C19.4016 10.4143 19.0678 10.5041 18.8426 10.4542C19.0032 10.7467 19.5648 10.9541 19.8235 10.9717C19.6553 11.1617 19.3758 11.3616 19.1455 11.4166C19.2489 11.519 19.751 11.604 20.1159 11.5216C19.8545 11.9065 19.3356 12.3404 18.9369 12.3255C19.4052 12.6749 20.2777 12.5558 20.9852 11.9504C21.0514 12.3411 20.9664 12.9225 20.8947 13.0699C21.1943 13.0046 21.6554 12.4925 21.8256 12.2192C22.0757 12.7509 22.0719 12.9737 22.0719 12.9737C22.6111 12.2584 23.9765 11.8668 24.4774 10.2155C24.5248 10.0591 24.4706 9.96878 24.3256 9.96878C24.249 9.96878 21.8255 9.96218 21.8255 9.96218C20.4538 9.96218 19.5279 9.68216 18.9411 9.40072C19.0403 9.78092 19.4535 10.2142 19.6191 10.3017H19.619ZM23.5166 10.4663C23.7169 10.4663 23.6983 10.584 23.6389 10.68C23.5795 10.776 23.3934 11.0748 23.3934 11.0748C23.3934 11.0748 23.1991 10.8719 22.8114 10.7216C22.4237 10.5713 22.3144 10.5465 22.3144 10.4663H23.5166ZM14.5476 12.9399C14.4695 13.1559 14.4464 13.3943 14.488 13.7044C14.7401 14.2388 14.862 15.2312 14.7842 15.786C15.1856 15.2391 15.3639 14.6243 15.4788 14.1322C15.7091 14.3621 16.0078 14.6913 16.2163 14.958C16.252 14.6692 16.3155 14.3125 16.3711 14.0549C16.6711 14.3345 17.2935 14.6856 17.7143 14.8101C17.431 13.6432 16.9462 12.8993 16.9462 12.8993C16.5348 12.9398 15.8722 12.8419 15.5743 12.5558C15.6274 12.9787 15.9254 13.4647 15.9254 13.4647C15.287 13.5255 14.8348 13.3128 14.5476 12.9399ZM21.6872 12.9399C21.4 13.3129 20.9478 13.5255 20.3094 13.4647C20.3094 13.4647 20.6073 12.9787 20.6605 12.5559C20.3626 12.842 19.7001 12.9399 19.2885 12.8993C19.2885 12.8993 18.8039 13.6432 18.5204 14.8101C18.9415 14.6856 19.5638 14.3345 19.8636 14.0548C19.9193 14.3124 19.9827 14.6691 20.0185 14.958C20.227 14.6914 20.5256 14.3621 20.7561 14.1322C20.8708 14.6242 21.0492 15.2391 21.4507 15.786C21.3729 15.2312 21.4948 14.2387 21.7468 13.7043C21.7883 13.3943 21.7653 13.1559 21.6871 12.9398L21.6872 12.9399ZM16.196 16.6164C16.4369 16.9945 16.6513 17.4491 16.7256 17.8541C16.9566 17.5812 17.2005 17.1069 17.3657 16.5405C17.5684 16.7878 17.9224 17.2915 18.1174 17.707C18.3123 17.2915 18.6664 16.7878 18.8689 16.5405C19.0344 17.1069 19.2783 17.5812 19.5092 17.8541C19.5835 17.4491 19.7978 16.9945 20.0387 16.6164C20.2219 17.3522 20.9287 18.068 21.658 18.1218C21.1836 17.5204 21.164 16.481 21.1976 16.1348C20.8817 15.6552 20.6736 15.2226 20.574 14.9286C20.3598 15.1354 20.0284 15.5374 19.7309 16.002C19.7309 15.9964 19.7224 15.4195 19.6038 14.7189C19.2972 14.9894 18.742 15.1852 18.4451 15.2613C18.2579 15.5595 18.2065 15.7921 18.1174 16.1663C18.0283 15.7921 17.9768 15.5595 17.7896 15.2613C17.4928 15.1852 16.9376 14.9894 16.6309 14.719C16.5124 15.4195 16.5037 15.9964 16.5037 16.002C16.2063 15.5374 15.875 15.1354 15.6606 14.9286C15.5611 15.2226 15.3531 15.6552 15.037 16.1348C15.0708 16.4811 15.051 17.5205 14.5766 18.1219C15.3061 18.068 16.0127 17.3523 16.1959 16.6165L16.196 16.6164ZM9.58743 25.3185C9.99681 25.0578 10.2558 24.5841 10.5507 24.0047C10.3791 24.074 10.1302 24.1492 9.88101 24.1997C9.63779 24.6589 9.29335 24.4808 9.28443 24.4156C9.35887 24.335 9.44384 24.2161 9.50777 24.1124C9.40408 23.9231 9.27928 23.6411 9.21035 23.4666C8.86243 24.1818 8.22326 24.9082 7.68806 25.1917C8.00297 25.619 8.97896 25.706 9.58736 25.3185H9.58743ZM10.8526 24.1132C10.5623 24.7113 10.6306 25.6332 11.5549 25.6593C11.4782 25.0066 11.7794 24.3924 12.1015 24.1132C11.8245 24.1798 11.3736 24.5345 11.3736 24.5345C11.3736 24.5345 11.3057 24.6865 11.2921 24.8832C11.0985 24.917 10.9917 24.7714 11.072 24.468C11.072 24.468 10.9322 24.3119 10.8526 24.1133V24.1132ZM6.27698 24.7963C6.41327 24.7961 6.54896 24.7799 6.68124 24.748C7.57378 24.5327 8.42374 23.7876 8.92904 23.162C8.64047 23.2511 8.34893 23.3091 8.02575 23.341C8.02575 23.341 7.79944 23.5995 7.6253 23.695C7.53692 23.7439 7.44876 23.7672 7.3651 23.7672C7.1126 23.7672 7.00543 23.5651 7.00543 23.5651C7.00543 23.5651 7.41263 23.3745 7.67188 23.1038C7.62044 22.9044 7.58786 22.628 7.58191 22.3525C6.8791 23.0417 5.55809 23.7114 4.63537 23.8413C4.81802 24.2125 5.46593 24.7963 6.27703 24.7963H6.27698ZM4.49001 23.3343C4.5363 23.3343 4.5826 23.3322 4.62871 23.3278C5.54602 23.2392 6.65316 22.6657 7.36605 22.1694C7.13908 22.2143 6.54243 22.2274 6.25932 22.1889C6.16139 22.2529 5.72969 22.5192 5.37046 22.5637C4.71528 22.6447 4.646 22.249 4.646 22.249C5.06689 22.1988 5.55215 22.0601 6.01603 21.8492C6.06256 21.5083 6.14338 21.2043 6.21248 20.9802C5.2012 21.5301 3.55132 21.9169 2.57257 21.9296C2.76843 22.3836 3.52772 23.3343 4.49001 23.3343ZM4.63423 20.1087C4.77521 19.8652 4.99838 19.5775 5.2015 19.3428C4.39406 19.5599 3.35468 19.6053 2.80368 19.6053C2.15402 19.6053 1.52281 19.5605 1.16069 19.4896C1.19282 20.1266 1.81358 21.2256 3.03844 21.3329C3.10232 21.3386 3.173 21.3414 3.24859 21.3414C4.01268 21.3414 5.22792 21.0396 6.06412 20.7499C5.46791 20.675 4.89205 20.5369 4.76068 20.4831C4.44972 20.5702 3.70688 20.6919 3.46564 20.6789C2.91805 20.6495 2.85946 20.2391 2.85946 20.2391C2.85946 20.2391 3.84492 20.2797 4.63417 20.1087H4.63423ZM1.69404 18.9413C2.1491 19.0848 2.87476 19.1671 3.68515 19.1671C4.17953 19.1671 4.70111 19.124 5.12531 19.0651C4.66713 18.9129 4.10178 18.6826 3.73433 18.4546C3.27506 18.4456 2.65171 18.4328 2.25141 18.3132C1.66276 18.1374 1.67111 17.7442 1.68156 17.656C2.19053 17.8558 3.05627 18.0469 3.6962 18.0841C3.9321 17.8623 4.2965 17.5979 4.681 17.3677C3.16249 17.3807 1.22398 16.7936 0.134821 16.2307C-0.114234 18.2089 1.26186 18.8047 1.69404 18.9412V18.9413ZM5.03201 14.8393C4.79767 14.4003 4.56914 13.8099 4.539 13.301C3.82883 12.7562 3.01815 12.063 2.5491 11.2707C2.27807 10.8127 2.3781 10.4113 2.57005 10.2731C2.71649 10.7707 3.67014 12.164 4.53462 12.8627C4.5414 12.4161 4.61838 11.9026 4.73762 11.5163C3.73252 10.4484 2.6059 8.67976 2.33373 7.98676C2.02787 8.23415 1.50059 8.85628 1.37102 9.73296C1.24049 10.6155 1.53355 11.5219 2.24204 12.4275C2.78687 13.1241 3.98626 14.1626 5.03201 14.8393ZM4.74315 17.0835C4.05218 16.6362 3.57323 16.2212 3.31793 15.8484C2.74057 15.6292 1.99401 15.2946 1.62626 14.993C1.12095 14.5789 1.28089 14.2063 1.3398 14.1319C1.78471 14.5754 2.74826 15.2147 3.43261 15.4991C3.85987 15.3366 4.45356 15.2174 5.03195 15.1479C3.31776 14.4867 1.47765 13.2453 0.516081 12.0752C0.321072 12.4449 -0.471003 14.1838 1.01401 15.6096C1.79605 16.3607 3.40703 16.8789 4.74302 17.0836L4.74315 17.0835ZM27.0245 23.4667C26.9555 23.6411 26.8307 23.9231 26.727 24.1125C26.7908 24.2161 26.876 24.335 26.9504 24.4156C26.9413 24.4808 26.597 24.6589 26.3539 24.1997C26.1045 24.1492 25.8558 24.074 25.684 24.0047C25.979 24.5841 26.2379 25.0578 26.6473 25.3185C27.2558 25.7061 28.2318 25.6191 28.5466 25.1917C28.0114 24.9082 27.3723 24.1818 27.0244 23.4666L27.0245 23.4667ZM25.3822 24.1132C25.3027 24.3119 25.1628 24.468 25.1628 24.468C25.2432 24.7714 25.1362 24.917 24.9425 24.8832C24.929 24.6865 24.8611 24.5345 24.8611 24.5345C24.8611 24.5345 24.4102 24.1798 24.1333 24.1132C24.4552 24.3924 24.7565 25.0066 24.6799 25.6593C25.6042 25.6332 25.6725 24.7113 25.3822 24.1132ZM28.563 23.1039C28.8221 23.3745 29.2293 23.5651 29.2293 23.5651C29.2293 23.5651 29.1222 23.7673 28.8697 23.7673C28.7861 23.7673 28.6978 23.7439 28.6094 23.695C28.4352 23.5995 28.209 23.341 28.209 23.341C27.8858 23.3091 27.5943 23.2512 27.3056 23.162C27.8109 23.7876 28.6609 24.5327 29.5534 24.748C29.6857 24.7799 29.8215 24.7961 29.9577 24.7963C30.7687 24.7963 31.4168 24.2125 31.5994 23.8414C30.6767 23.7114 29.3556 23.0418 28.6528 22.3525C28.6469 22.628 28.6142 22.9044 28.563 23.1039ZM30.2187 21.8493C30.6826 22.0602 31.1679 22.1989 31.5889 22.249C31.5889 22.249 31.5196 22.6448 30.8643 22.5637C30.5051 22.5192 30.0733 22.2529 29.9754 22.1889C29.6924 22.2274 29.0955 22.2143 28.8686 22.1694C29.5817 22.6657 30.6888 23.2392 31.606 23.3278C31.6521 23.3322 31.6984 23.3343 31.7448 23.3343C32.7071 23.3343 33.4663 22.3836 33.6622 21.9296C32.6834 21.9169 31.0336 21.5301 30.0223 20.9803C30.0914 21.2044 30.1722 21.5083 30.2187 21.8492V21.8493ZM31.0331 19.3428C31.2364 19.5776 31.4595 19.8653 31.6004 20.1087C32.3898 20.2798 33.3751 20.2391 33.3751 20.2391C33.3751 20.2391 33.3166 20.6495 32.7692 20.6788C32.5278 20.6918 31.785 20.5702 31.4741 20.483C31.3426 20.5368 30.7668 20.675 30.1706 20.7499C31.0067 21.0396 32.2222 21.3414 32.9863 21.3414C33.0619 21.3414 33.1326 21.3387 33.1963 21.3329C34.4211 21.2257 35.0419 20.1267 35.0741 19.4897C34.7121 19.5605 34.0807 19.6053 33.4311 19.6053C32.8803 19.6053 31.8406 19.56 31.0332 19.3428H31.0331ZM36.1001 16.2308C35.0108 16.7936 33.0723 17.3808 31.5538 17.3678C31.9382 17.598 32.3026 17.8623 32.5385 18.0842C33.1784 18.0469 34.0442 17.8558 34.553 17.6561C34.5636 17.7442 34.572 18.1374 33.9833 18.3133C33.583 18.4329 32.9596 18.4456 32.5004 18.4546C32.133 18.6827 31.5676 18.9129 31.1093 19.0651C31.5336 19.124 32.0551 19.1671 32.5496 19.1671C33.36 19.1671 34.0857 19.0849 34.5407 18.9413C34.9728 18.8048 36.349 18.2089 36.1001 16.2308ZM33.6647 10.2731C33.8568 10.4113 33.9567 10.8128 33.6857 11.2708C33.2165 12.063 32.406 12.7562 31.6957 13.301C31.6656 13.81 31.437 14.4004 31.2027 14.8393C32.2484 14.1626 33.448 13.1241 33.9927 12.4276C34.7012 11.522 34.9943 10.6155 34.8637 9.73303C34.7341 8.85628 34.2069 8.23415 33.901 7.98676C33.6289 8.67976 32.5022 10.4485 31.4971 11.5164C31.6164 11.9026 31.6933 12.4161 31.7002 12.8627C32.5645 12.164 33.5183 10.7708 33.6647 10.2731ZM32.8021 15.4992C33.4865 15.2147 34.4501 14.5754 34.8949 14.1319C34.9538 14.2064 35.1137 14.579 34.6085 14.993C34.2407 15.2946 33.4941 15.6292 32.9168 15.8485C32.6615 16.2212 32.1826 16.6363 31.4916 17.0836C32.8276 16.879 34.4387 16.3607 35.2209 15.6097C36.7058 14.1838 35.9136 12.4449 35.7187 12.0753C34.7571 13.2454 32.9171 14.4868 31.2027 15.148C31.7812 15.2175 32.3749 15.3366 32.8021 15.4992V15.4992ZM28.8078 13.4974C28.251 14.7591 26.8395 15.884 25.9265 16.4471C25.5099 16.704 25.662 17.1911 25.7952 17.4072C27.039 19.4259 24.7772 20.9304 22.7341 19.9299C23.18 19.9347 23.63 19.5646 23.6923 19.2348C23.5507 19.3544 22.9705 19.2887 22.799 19.1339C23.0622 18.9994 23.1247 18.8631 23.1384 18.7356C22.8129 18.9307 22.155 18.9576 21.9612 18.6279C20.8818 18.5995 20.1638 17.7765 20.0843 17.539C20.0043 17.7916 19.875 18.2332 19.8326 18.6689C19.5398 18.4752 19.0399 18.037 18.7793 17.4427C18.4842 17.8543 18.2618 18.3179 18.1173 18.8064C17.9729 18.3179 17.7506 17.8543 17.4555 17.4427C17.1948 18.037 16.6948 18.4753 16.4022 18.6689C16.3596 18.2332 16.2306 17.7917 16.1505 17.5391C16.0711 17.7766 15.353 18.5996 14.2736 18.628C14.0797 18.9577 13.4219 18.9308 13.0964 18.7356C13.1099 18.8632 13.1726 18.9995 13.4357 19.1339C13.2643 19.2888 12.6842 19.3545 12.5424 19.2349C12.6047 19.5646 13.0549 19.9347 13.5006 19.9299C11.4576 20.9304 9.19569 19.4259 10.4396 17.4073C10.5729 17.1911 10.7248 16.704 10.3083 16.4471C9.39523 15.8839 7.98374 14.7591 7.42692 13.4973C7.36082 14.0118 7.41125 15.2886 7.97677 16.083C7.56362 16.2374 7.03373 16.4879 6.67754 16.7202C6.90276 16.9704 7.42736 17.4026 7.77985 17.6375C7.49215 17.8876 7.04548 18.3662 6.81112 18.6796C7.1081 18.8522 7.70649 19.0618 8.16376 19.2031C7.95239 19.5439 7.62733 20.1587 7.54563 20.5247C8.05768 20.5974 8.58039 20.5907 9.04165 20.5765C8.9828 21.0032 9.02155 21.5389 9.06777 21.9293C9.54296 21.8625 10.0657 21.674 10.4125 21.4956C10.4783 21.79 10.6596 22.3335 10.8222 22.6244C11.273 22.2062 11.8677 22.0149 12.4182 22.1257C13.5453 22.3526 13.8803 23.4667 13.8803 23.4667L13.882 20.0775V19.6992C13.882 19.4879 13.9984 19.3761 14.207 19.3761H22.0278C22.2365 19.3761 22.3528 19.4879 22.3528 19.6992V20.0774L22.3545 23.4666C22.3545 23.4666 22.6896 22.3525 23.8167 22.1256C24.3672 22.0148 24.9619 22.2062 25.4127 22.6243C25.5753 22.3335 25.7566 21.79 25.8224 21.4955C26.1691 21.674 26.6919 21.8624 27.1671 21.9292C27.2133 21.5389 27.252 21.0032 27.1933 20.5765C27.6493 20.6227 28.1738 20.6227 28.6892 20.5246C28.6076 20.1587 28.2824 19.544 28.071 19.2032C28.5466 19.0785 29.1267 18.8523 29.4238 18.6796C29.1895 18.3662 28.7428 17.8876 28.455 17.6376C28.8074 17.4026 29.332 16.9704 29.5574 16.7203C29.2012 16.4879 28.6712 16.2374 28.2581 16.0831C28.8236 15.2887 28.8741 14.0118 28.8078 13.4974H28.8078ZM14.5938 9.52991L14.5473 9.64889C15.9138 9.64889 17.2274 9.19192 17.5779 7.60075H16.5312C16.3454 8.74709 15.656 9.52991 14.5938 9.52991ZM8.68604 6.94116C8.68604 6.94116 9.43347 7.11037 9.72595 8.13831C10.0185 9.16631 10.7537 9.6579 11.5078 9.6579L11.4615 9.51785C11.0226 9.46443 10.4039 8.85365 10.2881 7.72235C10.1714 6.58348 9.88558 6.43677 9.88558 6.43677C9.59026 6.23715 8.84792 6.76436 8.68589 6.94116H8.68604ZM6.49961 7.40096C7.12305 7.38096 7.54258 7.57478 8.32622 6.87723C9.2512 6.05338 9.69032 6.1942 9.69032 6.1942C9.21833 5.89407 8.56 5.7607 8.33398 5.93402C8.10781 6.10751 7.80184 6.57279 7.28754 6.90411C6.56275 7.37095 5.81837 7.24772 5.78511 7.6829H5.80528C5.80528 7.6829 5.87625 7.42111 6.49955 7.40096H6.49961ZM7.07472 10.1317C7.4537 10.4969 7.48853 11.2471 7.48853 11.2471C7.48853 11.2471 7.94238 10.4519 7.56834 9.60639C7.19445 8.76107 6.4302 8.11248 7.17943 7.61877C6.7218 7.62253 6.22588 7.51966 6.00811 7.82288C5.94032 7.91731 5.87752 8.15136 6.10561 8.48431C6.39543 8.9075 7.11949 9.89152 6.52618 10.5468C6.95993 10.4686 7.07472 10.1317 7.07472 10.1317ZM11.7556 9.65343H14.3233C14.3233 9.65343 14.3868 9.50111 14.4677 9.2811H11.6112C11.6922 9.50111 11.7556 9.65343 11.7556 9.65343ZM13.2921 6.0902C13.2921 5.95316 13.1813 5.84189 13.0446 5.84189C12.908 5.84189 12.7971 5.95316 12.7971 6.0902C12.7971 6.22734 12.908 6.33844 13.0446 6.33844C13.1813 6.33844 13.2921 6.22734 13.2921 6.0902ZM14.5745 9.00016C14.6843 8.66359 14.808 8.15179 14.808 7.90475C14.808 7.45339 14.5595 6.95369 13.6621 6.79988C13.6621 7.34541 13.3909 8.68196 13.063 8.68196H13.0261C12.6984 8.68196 12.4271 7.35535 12.4271 6.79976C11.5269 6.95339 11.2708 7.45325 11.2708 7.90475C11.2708 8.15179 11.3947 8.66359 11.5045 9.00016H14.5746H14.5745ZM13.0446 8.30765C13.2154 8.30765 13.3539 7.43495 13.3539 7.00043C13.3539 6.76306 13.2155 6.60736 13.0447 6.60736C12.8738 6.60736 12.7352 6.76306 12.7352 7.00043C12.7352 7.43495 12.8738 8.30765 13.0447 8.30765H13.0446ZM12.8795 5.51093H13.2096L13.1684 5.09712L13.5808 5.13853V4.80751L13.1684 4.84893L13.2096 4.43512H12.8795L12.9208 4.84893L12.5084 4.80751V5.13853L12.9209 5.09712L12.8796 5.51093H12.8795ZM19.7035 7.60075H18.6568C19.0074 9.19199 20.3209 9.64889 21.6874 9.64889L21.641 9.52991C20.5789 9.52991 19.8893 8.74716 19.7035 7.60075ZM24.7268 9.6579C25.481 9.6579 26.2162 9.16631 26.5088 8.13831C26.8012 7.11044 27.5488 6.94122 27.5488 6.94122C27.3868 6.76442 26.6446 6.23722 26.3492 6.43677C26.3492 6.43677 26.0634 6.58348 25.9467 7.72249C25.831 8.85372 25.2122 9.4645 24.7734 9.51785L24.7268 9.65797V9.6579ZM27.9086 6.87723C28.6921 7.57478 29.1116 7.38103 29.7352 7.40096C30.3584 7.42111 30.4294 7.6829 30.4294 7.6829H30.4496C30.4163 7.24779 29.6719 7.37095 28.9472 6.90411C28.4329 6.57285 28.1269 6.10751 27.9008 5.93408C27.6747 5.76071 27.0164 5.89413 26.5444 6.1942C26.5444 6.1942 26.9835 6.05338 27.9086 6.87723ZM30.2266 7.82288C30.0088 7.51973 29.513 7.6226 29.0553 7.61884C29.8045 8.11248 29.0405 8.76107 28.6663 9.60639C28.2925 10.4519 28.7462 11.2471 28.7462 11.2471C28.7462 11.2471 28.7811 10.4969 29.16 10.1317C29.16 10.1317 29.2747 10.4686 29.7086 10.5468C29.1153 9.89159 29.8393 8.9075 30.1292 8.48438C30.3573 8.15136 30.2945 7.91731 30.2266 7.82288ZM24.4792 9.65343C24.4792 9.65343 24.5425 9.50118 24.6236 9.2811H21.767C21.8479 9.50118 21.9114 9.65343 21.9114 9.65343H24.4792ZM23.4376 6.0902C23.4376 5.95322 23.3268 5.84196 23.1901 5.84196C23.0535 5.84196 22.9426 5.95316 22.9426 6.0902C22.9426 6.22734 23.0535 6.33844 23.1901 6.33844C23.3268 6.33844 23.4376 6.22741 23.4376 6.0902ZM24.7302 9.00016C24.8402 8.66366 24.964 8.15178 24.964 7.90482C24.964 7.45325 24.7078 6.95339 23.8076 6.79982C23.8076 7.35528 23.5364 8.68196 23.2086 8.68196H23.1718C22.8439 8.68196 22.5726 7.34541 22.5726 6.79988C21.6752 6.95369 21.4269 7.45339 21.4269 7.90475C21.4269 8.15179 21.5504 8.66359 21.6601 9.00016H24.7302ZM23.1901 8.30765C23.3611 8.30765 23.4996 7.43495 23.4996 7.00043C23.4996 6.76306 23.3611 6.60742 23.1901 6.60742C23.0192 6.60742 22.8808 6.76306 22.8808 7.00043C22.8808 7.43495 23.0192 8.30765 23.1901 8.30765ZM23.0252 5.51093H23.3551L23.314 5.09717L23.7265 5.1386V4.80757L23.314 4.84899L23.3552 4.43512H23.0253L23.0665 4.84899L22.6539 4.80757V5.1386L23.0665 5.09717L23.0253 5.51099L23.0252 5.51093ZM6.2254 15.4574C5.55845 15.4732 4.38397 15.6033 3.78752 15.7886C4.19293 16.2652 5.2517 16.9496 5.8861 17.2402C5.3928 17.4232 4.50784 17.8877 4.13883 18.2229C4.6143 18.5106 5.65854 18.8394 6.15214 18.9468C5.86479 19.1751 5.27307 19.835 5.05603 20.1909C5.46473 20.3157 6.30507 20.4242 6.83869 20.4549C6.6676 20.804 6.47277 21.4202 6.42113 21.8216C6.68566 21.8479 7.56936 21.8031 8.00689 21.7071C7.96937 22.057 7.98367 22.6935 8.04288 22.9678C8.47453 22.9072 9.09099 22.7371 9.37774 22.6287C9.46082 22.9405 9.75766 23.6122 9.86193 23.7717C10.2078 23.7067 10.6206 23.5684 10.9241 23.4128C11.02 23.6628 11.238 24.0368 11.2982 24.1312C12.3091 23.1309 13.7527 23.9421 13.7527 25.0066C13.6491 25.708 12.6374 25.6688 12.1048 25.9984C11.4045 26.4319 11.5258 27.4369 10.805 27.5912C11.486 28.0127 11.6842 27.2216 12.3915 27.199C12.2972 27.6258 12.3061 28.3835 12.377 28.7008C12.6682 28.4808 13.0765 28.3129 13.3436 28.2959C13.2776 28.5448 13.2261 29.1273 13.3216 29.4902C13.5092 29.3509 14.2101 28.7544 15.8741 29.1379C16.0759 29.1843 14.7454 29.1332 14.9114 29.5533C15.0422 29.8844 15.0792 30.1147 14.9228 30.5848C14.9934 30.6096 15.0752 30.6214 15.1634 30.6214C15.5365 30.6214 16.0203 30.4095 16.2124 30.0767C16.3609 30.1848 16.3609 30.9545 15.8633 31.1457C16.3948 31.1837 16.7996 30.761 16.8781 30.5014C16.8781 30.5014 17.1379 31.1059 17.446 31.3044C17.6394 31.2381 17.9842 30.9241 18.1174 30.5981C18.2505 30.9242 18.5952 31.2381 18.7885 31.3044C19.0967 31.1059 19.3565 30.5014 19.3565 30.5014C19.435 30.761 19.8399 31.1837 20.3713 31.1457C19.8738 30.9545 19.8738 30.1848 20.0222 30.0767C20.2145 30.4095 20.6981 30.6214 21.0714 30.6214C21.1595 30.6214 21.2414 30.6096 21.3121 30.5848C21.1556 30.1147 21.1926 29.8845 21.3234 29.5533C21.4894 29.1332 20.159 29.1844 20.3607 29.1379C22.0244 28.7544 22.7255 29.3509 22.9132 29.4902C23.0087 29.1273 22.9572 28.5448 22.8912 28.2959C23.1583 28.3129 23.5665 28.4808 23.8577 28.7008C23.9284 28.3834 23.9375 27.6258 23.8431 27.199C24.5504 27.2216 24.7485 28.0127 25.4297 27.5912C24.7089 27.4369 24.83 26.4319 24.1298 25.9984C23.5972 25.6688 22.5855 25.7079 22.4819 25.0066C22.4819 23.9421 23.9255 23.1308 24.9365 24.1312C24.9966 24.0367 25.2145 23.6627 25.3105 23.4128C25.6139 23.5685 26.0269 23.7067 26.3727 23.7717C26.4769 23.6121 26.7739 22.9405 26.8568 22.6285C27.1437 22.7371 27.7601 22.9071 28.1918 22.9678C28.2509 22.6934 28.2652 22.057 28.2277 21.7071C28.6653 21.8031 29.5488 21.8479 29.8134 21.8216C29.7618 21.4201 29.5671 20.804 29.3958 20.4549C29.9295 20.4242 30.7698 20.3156 31.1787 20.1908C30.9614 19.8349 30.3697 19.1749 30.0825 18.9468C30.576 18.8393 31.6203 18.5105 32.0958 18.2228C31.7268 17.8876 30.8418 17.4231 30.3485 17.2402C30.983 16.9495 32.0416 16.2652 32.4472 15.7885C31.8506 15.6032 30.6761 15.4731 30.0092 15.4574C31.3897 14.5353 31.4323 12.5353 31.0347 11.4485C30.7674 12.1074 29.881 13.1897 29.3089 13.7733C29.3597 14.3288 29.1752 15.314 28.8586 15.9153C29.3118 16.0833 29.8489 16.3368 30.2294 16.6194C29.9768 16.9296 29.4336 17.411 29.093 17.6718C29.3813 17.9662 29.8662 18.507 30.0823 18.8196C29.7631 19.0532 29.0682 19.321 28.712 19.444C28.8873 19.795 29.1418 20.4353 29.2076 20.8773C28.802 20.9428 28.2436 20.9871 27.6598 20.9802C27.6881 21.4035 27.6272 22.0587 27.5517 22.4512C27.0103 22.4092 26.3714 22.1921 26.0866 22.0526C25.9359 22.6376 25.5635 23.2051 25.5472 23.2352C23.8547 21.4339 22.3545 23.1333 22.3545 24.7209V26.8845C22.3545 27.9078 22.0243 28.375 21.0741 28.375H19.8443C19.0789 28.375 18.4374 28.6921 18.1173 29.3014C17.7971 28.6921 17.1557 28.375 16.3902 28.375H15.1604C14.2101 28.375 13.8798 27.9078 13.8798 26.8844V24.7209C13.8798 23.1333 12.3798 21.4339 10.6873 23.2352C10.671 23.2051 10.2985 22.6376 10.1478 22.0526C9.86294 22.1921 9.22421 22.4092 8.68292 22.4512C8.60716 22.0587 8.54629 21.4035 8.57473 20.9803C7.99092 20.9872 7.43251 20.9429 7.02669 20.8774C7.09265 20.4354 7.34718 19.7951 7.52263 19.444C7.16644 19.3211 6.47151 19.0533 6.15221 18.8197C6.36817 18.5071 6.85313 17.9663 7.14155 17.6719C6.80074 17.411 6.25758 16.9296 6.0051 16.6194C6.38553 16.3368 6.92271 16.0833 7.37577 15.9153C7.05934 15.314 6.87468 14.3288 6.92547 13.7733C6.35334 13.1897 5.46707 12.1073 5.19977 11.4484C4.80217 12.5353 4.84474 14.5353 6.22534 15.4573L6.2254 15.4574ZM2.41587 25.7874L2.2914 25.9171C2.2914 25.9171 2.54952 26.2465 2.75798 26.1212C2.87663 25.9074 2.54094 25.6583 2.54094 25.6583L2.41581 25.7874H2.41587Z" fill="#333333"/>
</svg>
