<svg xmlns="http://www.w3.org/2000/svg" xmlns:xlink="http://www.w3.org/1999/xlink" color="red">
    <style>path { fill: currentColor }</style>
    <symbol id="symbol-cross-circle" viewBox="0 0 24 24">
        <path d="M12,2C17.53,2 22,6.47 22,12C22,17.53 17.53,22 12,22C6.47,22 2,17.53 2,12C2,6.47 6.47,2 12,2M15.59,7L12,10.59L8.41,7L7,8.41L10.59,12L7,15.59L8.41,17L12,13.41L15.59,17L17,15.59L13.41,12L17,8.41L15.59,7Z" />
        <!-- <path d="M 12 0 C 5.382812 0 0 5.382812 0 12 C 0 18.617188 5.382812 24 12 24 C 18.617188 24 24 18.617188 24 12 C 24 5.382812 18.617188 0 12 0 Z M 16.707031 15.292969 L 15.292969 16.707031 L 12 13.414062 L 8.707031 16.707031 L 7.292969 15.292969 L 10.585938 12 L 7.292969 8.707031 L 8.707031 7.292969 L 12 10.585938 L 15.292969 7.292969 L 16.707031 8.707031 L 13.414062 12 Z M 16.707031 15.292969 "/> -->
    </symbol>
    <g id="cross-circle"><use xlink:href="#symbol-cross-circle" /></g>
</svg>