<svg width="16" height="24" viewBox="0 0 16 24" fill="none" xmlns="http://www.w3.org/2000/svg">
<g clip-path="url(#clip0_2611_677)">
<path d="M8.00384 24.0002C5.59905 21.1504 3.53078 18.2133 1.93104 14.9655C1.0561 13.1838 0.344248 11.3455 0.0905675 9.36605C-0.344314 5.98222 0.776537 3.20431 3.67833 1.35836C6.52577 -0.461924 9.52851 -0.451658 12.363 1.3866C15.1975 3.22485 16.3857 6.00791 15.8861 9.34552C15.6742 10.7014 15.3068 12.0288 14.7911 13.3019C13.225 17.2377 10.784 20.6574 8.00384 24.0002ZM7.96243 3.08364C6.95453 3.09075 5.97137 3.39393 5.13711 3.9549C4.30285 4.51587 3.6549 5.30945 3.2751 6.23544C2.8953 7.16142 2.80068 8.17826 3.00321 9.15754C3.20573 10.1368 3.69631 11.0346 4.41297 11.7375C5.12964 12.4405 6.04026 12.917 7.02982 13.1069C8.01937 13.2968 9.04349 13.1917 9.97282 12.8047C10.9022 12.4177 11.695 11.7662 12.2513 10.9326C12.8075 10.0989 13.1022 9.12053 13.0982 8.12087C13.0798 6.78079 12.5311 5.5016 11.5703 4.55923C10.6095 3.61687 9.31367 3.08689 7.96243 3.08364Z" fill="#429410"/>
</g>
<defs>
<clipPath id="clip0_2611_677">
<rect width="16" height="24" fill="white"/>
</clipPath>
</defs>
</svg>
