<svg viewBox="0 0 26 26" xmlns="http://www.w3.org/2000/svg">
<path d="M13 26C20.1797 26 26 20.1797 26 13C26 5.8203 20.1797 0 13 0C5.8203 0 0 5.8203 0 13C0 20.1797 5.8203 26 13 26ZM6.4714 7.85693H15.7914C16.3659 7.85693 16.8322 7.9192 17.205 8.02845C17.5777 8.15244 17.8882 8.3387 18.1681 8.60252C18.4321 8.88164 18.6185 9.19189 18.7272 9.54912C18.836 9.90635 18.8983 10.3717 18.8983 10.9616V11.7378C18.8983 12.7308 18.7272 13.4759 18.3856 13.9418C18.044 14.4077 17.4848 14.7027 16.7081 14.8267L19.2088 18.2105H16.3042L14.0363 14.842H9.06556V18.2105H6.4714V7.85693ZM9.06556 12.5599H15.3717C15.7291 12.5599 15.9778 12.5134 16.1025 12.4047C16.2265 12.2961 16.3042 12.094 16.3042 11.7837V10.9147C16.3042 10.6197 16.2265 10.4182 16.1025 10.3095C15.9778 10.2008 15.7297 10.1385 15.3722 10.1385H9.06556V12.5599Z" fill="#333"/>
<path d="M20.1648 4.11077C20.1648 3.37884 19.5712 2.78564 18.8387 2.78564C18.1063 2.78564 17.5127 3.37884 17.5127 4.11077C17.5127 4.8427 18.1063 5.4359 18.8387 5.4359C19.5712 5.4359 20.1648 4.8427 20.1648 4.11077Z" fill="#F41240"/>
</svg>
