<svg width="68" height="58" viewBox="0 0 68 58" fill="none" xmlns="http://www.w3.org/2000/svg">
<path d="M25.0337 16.9264C25.0337 18.0213 25.7859 18.8202 26.839 18.8202C27.3505 18.8202 27.7718 18.6131 28.1027 18.3764V19.1753C27.7718 19.4121 27.3204 19.5304 26.839 19.5304C25.3948 19.5304 24.2514 18.3764 24.2514 16.8968C24.2514 16.1274 24.5824 15.4764 25.0337 15.0325V16.9264ZM29.3664 16.956C29.3664 17.7253 29.0656 18.3764 28.5841 18.8202V16.956C28.5841 15.8611 27.8319 15.0621 26.8089 15.0621C26.2974 15.0621 25.8762 15.2692 25.5452 15.506V14.707C25.8762 14.4998 26.3275 14.3519 26.8089 14.3519C28.2231 14.3223 29.3664 15.4764 29.3664 16.956Z" fill="#333333"/>
<path d="M31.5025 19.4419H30.7202V14.4409H31.5025V19.4419ZM34.8122 16.3052V19.4419H34.0299V16.3939C34.0299 15.595 33.5786 15.0623 32.7963 15.0623C32.4954 15.0623 32.2246 15.1511 32.014 15.2694V14.5888C32.2848 14.4113 32.6158 14.3225 33.0069 14.3225C34.1202 14.3225 34.8122 15.1215 34.8122 16.3052Z" fill="#333333"/>
<path d="M37.43 16.4827H40.0477C40.0477 15.5654 39.3857 15.0327 38.5733 15.0327C37.6105 15.0327 36.8884 15.8021 36.8884 16.9266C36.8884 18.0807 37.6406 18.8205 38.6937 18.8205C39.2955 18.8205 39.807 18.5541 40.1981 18.1399L40.6495 18.6725C40.168 19.2052 39.476 19.5603 38.6937 19.5603C37.2194 19.5603 36.1061 18.4062 36.1061 16.9562C36.1061 15.5062 37.2194 14.3225 38.6034 14.3225C39.8672 14.3225 40.83 15.2399 40.83 16.5715C40.83 16.8378 40.7999 17.0746 40.7698 17.1633H37.3999V16.4827H37.43Z" fill="#333333"/>
<path d="M25.5752 24.9755H27.1097V25.6857H23.9805V24.9755H24.7929V23.6143H25.5752V24.9755ZM25.5752 28.4081C25.5752 29.1479 25.9964 29.3551 26.6283 29.3551C26.8088 29.3551 27.0194 29.3255 27.2902 29.2959V29.9765C27.0495 30.0357 26.7787 30.0949 26.4778 30.0949C25.515 30.0949 24.8229 29.6214 24.8229 28.4673V26.1887H25.5752V28.4081Z" fill="#333333"/>
<path d="M28.7647 27.461C28.7647 28.5559 29.5169 29.3549 30.57 29.3549C31.0815 29.3549 31.5028 29.1478 31.8337 28.911V29.71C31.5028 29.9468 31.0514 30.0651 30.57 30.0651C29.1258 30.0651 27.9824 28.911 27.9824 27.4315C27.9824 26.6621 28.3134 26.011 28.7647 25.5672V27.461ZM33.1276 27.4906C33.1276 28.26 32.8267 28.911 32.3453 29.3549V27.4906C32.3453 26.3957 31.593 25.5968 30.57 25.5968C30.0585 25.5968 29.6373 25.8039 29.3063 26.0406V25.2417C29.6373 25.0345 30.0886 24.8866 30.57 24.8866C31.9842 24.857 33.1276 25.9815 33.1276 27.4906Z" fill="#333333"/>
<path d="M34.4213 27.9644V24.9756H35.2036V28.0531C35.2036 28.8817 35.7452 29.3552 36.4673 29.3552C36.7381 29.3552 37.0089 29.296 37.2195 29.148V29.9174C36.9788 30.0358 36.7381 30.095 36.4673 30.095C35.2938 30.095 34.4213 29.2664 34.4213 27.9644ZM37.7009 24.9756H38.4832V27.994C38.4832 28.7633 38.1823 29.3552 37.7009 29.6511V24.9756Z" fill="#333333"/>
<path d="M39.7769 27.4613C39.7769 26.6919 40.1078 26.0409 40.5592 25.597V27.4613C40.5592 28.5562 41.3114 29.3551 42.3344 29.3551C42.9662 29.3551 43.4176 29.0592 43.7786 28.5562L44.3202 29C43.899 29.6511 43.1769 30.0949 42.3043 30.0949C40.9202 30.0949 39.7769 28.9409 39.7769 27.4613ZM42.3645 25.5674C41.853 25.5674 41.4016 25.7745 41.0707 26.0113V25.2123C41.4016 25.0051 41.853 24.8572 42.3344 24.8572C43.207 24.8572 43.9291 25.3011 44.3503 25.9521L43.8087 26.396C43.4477 25.8929 42.9963 25.5674 42.3645 25.5674Z" fill="#333333"/>
<path d="M45.6743 22.2532H46.4566V29.9766H45.6743V22.2532ZM48.954 26.9287C48.954 26.1297 48.5027 25.5971 47.7203 25.5971C47.4195 25.5971 47.1487 25.6858 46.938 25.8042V25.1236C47.2088 24.946 47.5398 24.8573 47.931 24.8573C49.0743 24.8573 49.7363 25.6562 49.7363 26.8399V29.9766H48.954V26.9287Z" fill="#333333"/>
<path d="M53.8884 28.3489C53.8884 27.5796 54.3999 27.0173 55.0619 26.5142L55.3628 26.8693C54.7911 27.3132 54.43 27.7275 54.43 28.3193C54.43 29.0887 55.092 29.5622 55.8743 29.5622C56.3557 29.5622 56.7769 29.3551 57.138 29.0296L57.469 29.4142C57.0176 29.8285 56.5061 30.0653 55.8743 30.0653C54.7911 30.0653 53.8884 29.4142 53.8884 28.3489ZM55.6035 26.3367C55.092 25.7153 54.7008 25.153 54.7008 24.4724C54.7008 23.7326 55.1822 23.052 56.0849 23.052C56.9575 23.052 57.469 23.6734 57.469 24.4428C57.469 25.0642 57.138 25.5081 56.5964 25.9224L56.2955 25.5377C56.7468 25.1826 56.9575 24.8571 56.9575 24.4132C56.9575 23.9398 56.6566 23.5255 56.0849 23.5255C55.5132 23.5255 55.2123 23.9102 55.2123 24.4428C55.2123 25.0051 55.5433 25.4489 55.9946 25.9816L59.2442 29.9173H58.6123L55.6035 26.3367ZM58.3114 27.2245C58.3114 26.9877 58.492 26.7806 58.7327 26.7806C58.9734 26.7806 59.1539 26.9877 59.1539 27.2245C59.1539 27.4612 58.9734 27.6683 58.7327 27.6683C58.492 27.6387 58.3114 27.4612 58.3114 27.2245Z" fill="#333333"/>
<path d="M26.0266 35.3918H27.4408V36.5755H23.8903V35.3918H24.6726V34.1194H26.0266V35.3918ZM26.0266 38.5877C26.0266 39.1796 26.3275 39.3867 26.9594 39.3867C27.1098 39.3867 27.3505 39.3571 27.5912 39.3571V40.5112C27.3204 40.5704 27.0195 40.6296 26.6585 40.6296C25.4248 40.6296 24.6726 40.0377 24.6726 38.7061V37.0194H26.0266V38.5877Z" fill="#333333"/>
<path d="M29.9683 40.4815H28.5842V35.3918H29.9382V40.4815H29.9683ZM31.8338 36.0724C31.8338 36.5162 31.4727 36.8418 31.0816 36.8418C30.6603 36.8418 30.3294 36.5162 30.3294 36.0724C30.3294 35.6285 30.6603 35.303 31.0816 35.303C31.5028 35.303 31.8338 35.6285 31.8338 36.0724Z" fill="#333333"/>
<path d="M34.9025 38.5285H34.2707C33.8194 38.5285 33.5786 38.706 33.5786 39.0316C33.5786 39.3867 33.8795 39.5938 34.3309 39.5938C34.5114 39.5938 34.7521 39.5346 34.9025 39.4458V40.3632C34.6317 40.5111 34.3008 40.5999 33.8795 40.5999C32.8565 40.5999 32.1946 39.9489 32.1946 39.0907C32.1946 38.1734 32.9167 37.6111 34.0902 37.6111H34.9025V38.5285ZM36.7079 37.4632V40.4816H35.3539V37.3744C35.3539 36.8122 35.053 36.4867 34.4211 36.4867C33.8795 36.4867 33.5185 36.753 33.0972 37.1969L32.4052 36.3387C32.9769 35.6285 33.699 35.303 34.5716 35.303C35.8353 35.303 36.7079 36.0132 36.7079 37.4632Z" fill="#333333"/>
<path d="M40.7356 39.5384L40.2542 40.5741H39.7728L37.3055 35.366H38.7498L40.7356 39.5384ZM40.9462 39.0354L40.2241 37.5558L41.2471 35.366H42.6914L40.9462 39.0354Z" fill="#333333"/>
<path d="M44.7416 37.4336H46.6071C46.6071 36.7826 46.0956 36.3979 45.524 36.3979C44.8018 36.3979 44.2602 36.9898 44.2602 37.9071C44.2602 38.8541 44.8319 39.3867 45.7346 39.3867C46.2762 39.3867 46.7275 39.1796 47.1186 38.8836L47.6903 39.8306C47.1186 40.3041 46.4567 40.6 45.7045 40.6C44.1098 40.6 42.9664 39.4459 42.9664 37.9367C42.9664 36.4275 44.1098 35.2734 45.5841 35.2734C46.9983 35.2734 47.931 36.3092 47.931 37.6408C47.931 37.9367 47.8709 38.2326 47.8408 38.4102H44.7416V37.4336Z" fill="#333333"/>
<path d="M50.338 32.7878H48.984V40.5113H50.338V32.7878Z" fill="#333333"/>
<path d="M65.5327 35.9541V52.7623V52.9694H65.3221H49.1044V55.4255H65.3221H67.9398V35.9541H65.5327Z" fill="#86BC26"/>
<path d="M48.8337 1.12451V3.58063H65.3222H65.5328V3.81737V20.3592H67.9399V1.12451H48.8337Z" fill="#86BC26"/>
<path d="M17.4513 8.13768V7.24993H18.3539H33.8796V6.15503H18.3539H16.3681V24.2948H17.4513V8.13768Z" fill="#E85C0C"/>
<path d="M17.4513 49.5071V48.5897V32.7285H16.3681V48.5897V50.602H34.1504V49.5071H18.3539H17.4513Z" fill="#E85C0C"/>
<path d="M8.00354 50.4836V52.3479L7.43186 52.5847V54.9816L8.00354 55.2183V57.0826L1.08319 54.0643V53.502L8.00354 50.4836ZM6.0177 54.3898V53.2357L4.4531 53.7979L6.0177 54.3898Z" fill="#333333"/>
<path d="M3.49025 46.1632L4.57343 46.9918C4.27255 47.3469 4.1221 47.702 4.1221 48.0571C4.1221 48.2939 4.18228 48.4122 4.30263 48.4122C4.42299 48.4122 4.48317 48.2939 4.57343 48.0571L4.78405 47.5541C5.1752 46.6663 5.53626 46.0745 6.40883 46.0745C7.49201 46.0745 8.12387 46.9622 8.12387 48.1755C8.12387 49.0632 7.7929 49.8622 7.13095 50.3357L6.07786 49.5367C6.49909 49.1224 6.70971 48.649 6.70971 48.1459C6.70971 47.9092 6.64954 47.702 6.46901 47.702C6.34865 47.702 6.28848 47.7908 6.19821 47.9979L5.9575 48.5602C5.56635 49.4775 5.1752 50.0398 4.30263 50.0398C3.27963 50.0398 2.67786 49.2408 2.67786 48.0867C2.73803 47.3469 2.94865 46.6663 3.49025 46.1632Z" fill="#333333"/>
<path d="M8.27433 39.653C9.41769 40.1561 9.95928 40.8071 9.95928 41.8428C9.95928 42.1683 9.89911 42.5234 9.83893 42.8193H8.36459C8.36459 42.5826 8.39468 42.405 8.39468 42.2275C8.39468 41.8132 8.3345 41.4877 7.79291 41.251L7.61238 41.1622L2.8584 42.9969V41.1622L5.74689 40.2152L2.8584 39.1203V37.2856L8.27433 39.653Z" fill="#333333"/>
<path d="M5.41591 31.6338C6.95042 31.6338 8.09379 32.8766 8.09379 34.3858C8.09379 35.9246 6.92034 37.1379 5.41591 37.1379C3.8814 37.1379 2.73804 35.9246 2.73804 34.3858C2.73804 32.8766 3.91149 31.6338 5.41591 31.6338ZM5.41591 35.3624C6.07786 35.3624 6.4991 34.9777 6.4991 34.3858C6.4991 33.8236 6.07786 33.4093 5.41591 33.4093C4.78405 33.4093 4.33273 33.8236 4.33273 34.3858C4.36282 34.9777 4.81414 35.3624 5.41591 35.3624Z" fill="#333333"/>
<path d="M5.59645 25.8633C7.13096 25.8633 8.12388 26.9286 8.12388 28.3195C8.12388 29.7399 7.13096 30.8052 5.59645 30.8052H2.8584V29.0592H5.74689C6.19822 29.0592 6.49911 28.7633 6.49911 28.3195C6.49911 27.9052 6.19822 27.5797 5.74689 27.5797H2.8584V25.8337H5.59645V25.8633Z" fill="#333333"/>
<path d="M5.17521 16.9561L2.85839 15.9499V14.1152L8.12388 16.6009V17.1632L5.65662 18.4652L8.12388 19.7377V20.2999L2.85839 22.7856V20.9509L5.26547 19.9152L2.73804 18.7316V18.1693L5.17521 16.9561Z" fill="#333333"/>
<path d="M1.0531 11.6001C1.62478 11.6001 2.07611 12.0736 2.07611 12.6654C2.07611 13.2572 1.62478 13.7307 1.0531 13.7307C0.451327 13.7307 0 13.2572 0 12.6654C0 12.1032 0.451327 11.6001 1.0531 11.6001ZM8.00354 11.8072V13.5532H2.85841V11.8072H8.00354Z" fill="#333333"/>
<path d="M3.49025 6.92447L4.57344 7.75304C4.27255 8.10814 4.12211 8.46324 4.12211 8.81834C4.12211 9.05508 4.18228 9.17345 4.30264 9.17345C4.42299 9.17345 4.48317 9.05508 4.57344 8.81834L4.78405 8.31528C5.1752 7.42753 5.53627 6.83569 6.40883 6.83569C7.49202 6.83569 8.12388 7.72345 8.12388 8.93671C8.12388 9.82447 7.7929 10.6234 7.13096 11.0969L6.07786 10.2979C6.4991 9.88365 6.70972 9.41018 6.70972 8.90712C6.70972 8.67039 6.64954 8.46324 6.46901 8.46324C6.34866 8.46324 6.28848 8.55202 6.19821 8.75916L6.01768 9.32141C5.62653 10.2388 5.23538 10.801 4.36282 10.801C3.33981 10.801 2.73804 10.002 2.73804 8.84794C2.73804 8.10814 2.94866 7.42753 3.49025 6.92447Z" fill="#333333"/>
<path d="M3.21949 4.32043C2.9186 3.99492 2.73807 3.55104 2.73807 3.01839C2.73807 1.8939 3.58055 1.12451 4.84427 1.12451H8.00356V2.87043H5.08497C4.63365 2.87043 4.33276 3.16635 4.33276 3.61023C4.33276 4.0541 4.63365 4.35002 5.08497 4.35002H8.00356V6.09594H0.300903V4.35002H3.21949V4.32043Z" fill="#333333"/>
</svg>
