<svg xmlns="http://www.w3.org/2000/svg" xmlns:xlink="http://www.w3.org/1999/xlink" color="red">
    <style>path { fill: currentColor }</style>
    <symbol id="symbol-trash" viewBox="0 0 48 48">
        <path d="M 3 43.5 C 3 45.984375 5.015625 48 7.5 48 L 34.5 48 C 36.984375 48 39 45.984375 39 43.5 L 39 12 L 3 12 Z M 28.5 19.5 C 28.5 18.671875 29.171875 18 30 18 C 30.828125 18 31.5 18.671875 31.5 19.5 L 31.5 40.5 C 31.5 41.328125 30.828125 42 30 42 C 29.171875 42 28.5 41.328125 28.5 40.5 Z M 19.5 19.5 C 19.5 18.671875 20.171875 18 21 18 C 21.828125 18 22.5 18.671875 22.5 19.5 L 22.5 40.5 C 22.5 41.328125 21.828125 42 21 42 C 20.171875 42 19.5 41.328125 19.5 40.5 Z M 10.5 19.5 C 10.5 18.671875 11.171875 18 12 18 C 12.828125 18 13.5 18.671875 13.5 19.5 L 13.5 40.5 C 13.5 41.328125 12.828125 42 12 42 C 11.171875 42 10.5 41.328125 10.5 40.5 Z M 40.5 3 L 29.25 3 L 28.367188 1.246094 C 27.988281 0.480469 27.207031 0 26.351562 0 L 15.636719 0 C 14.785156 -0.00390625 14.003906 0.480469 13.632812 1.246094 L 12.75 3 L 1.5 3 C 0.671875 3 0 3.671875 0 4.5 L 0 7.5 C 0 8.328125 0.671875 9 1.5 9 L 40.5 9 C 41.328125 9 42 8.328125 42 7.5 L 42 4.5 C 42 3.671875 41.328125 3 40.5 3 Z M 40.5 3 "/>
    </symbol>
    <g id="trash"><use xlink:href="#symbol-trash" /></g>
</svg>